<svg version="1.1" id="Layer_1" xmlns="http://www.w3.org/2000/svg" xmlns:xlink="http://www.w3.org/1999/xlink" x="0px" y="0px"
	 width="16" height="16" viewBox="0 0 512 512" enable-background="new 0 0 512 512" xml:space="preserve">
<path fill="#2e3436" opacity="1.000000" stroke="none" 
	d="
M249.000000,513.000000 
	C166.020126,513.000000 83.540253,513.000000 1.030190,513.000000 
	C1.030190,342.395111 1.030190,171.790192 1.030190,1.092644 
	C171.563232,1.092644 342.126526,1.092644 512.844910,1.092644 
	C512.844910,171.666550 512.844910,342.333252 512.844910,513.000000 
	C425.123505,513.000000 337.311737,513.000000 249.000000,513.000000 
M159.642166,161.166748 
	C152.419098,162.165237 145.062042,162.593384 137.994507,164.253860 
	C88.250549,175.940765 55.985607,228.302811 67.864479,277.696655 
	C78.762039,323.010040 116.358307,352.731812 163.007568,352.845490 
	C186.001389,352.901520 208.995453,352.862640 231.989395,352.846130 
	C233.743042,352.844849 235.496552,352.679565 237.736511,352.565826 
	C237.736511,341.908325 237.554596,331.768738 237.824097,321.641144 
	C237.935272,317.463684 236.587296,316.262726 232.454514,316.295258 
	C209.961838,316.472351 187.466904,316.414948 164.973022,316.346924 
	C160.482513,316.333344 155.913147,316.384918 151.516037,315.622589 
	C117.782471,309.774384 96.128838,277.321686 103.350258,243.696518 
	C108.572556,219.379898 131.147583,199.182144 155.893066,198.185181 
	C178.351501,197.280365 200.865860,197.793839 223.354736,197.589188 
	C227.952759,197.547333 233.982880,198.724609 236.704330,196.329956 
	C239.024567,194.288330 237.651245,187.921707 237.709518,183.465714 
	C237.804672,176.188614 237.735245,168.909378 237.735245,161.156769 
	C211.516891,161.156769 186.063782,161.156769 159.642166,161.166748 
M409.500671,352.851166 
	C422.282593,352.851166 435.064484,352.851166 448.148560,352.851166 
	C448.148560,339.918915 448.148560,327.558868 448.148560,314.628662 
	C428.997040,314.628662 410.250183,314.628662 390.956818,314.628662 
	C390.956818,295.173126 390.956818,276.280853 390.956818,257.342041 
	C378.005859,257.342041 365.615692,257.342041 352.614563,257.342041 
	C352.614563,276.554840 352.614563,295.431000 352.614563,314.980591 
	C333.140350,314.980591 314.272430,314.980591 295.470123,314.980591 
	C295.470123,327.912170 295.470123,340.148438 295.470123,353.004089 
	C314.704987,353.004089 333.585938,353.004089 353.090942,353.004089 
	C353.090942,372.335083 353.090942,391.049774 353.090942,409.831909 
	C365.976257,409.831909 378.219666,409.831909 391.047058,409.831909 
	C391.047058,390.782013 391.047058,372.058044 391.047058,352.851166 
	C397.252808,352.851166 402.877106,352.851166 409.500671,352.851166 
M417.112244,186.396591 
	C398.541626,169.554535 376.603607,161.336823 351.650574,161.178421 
	C328.328613,161.030365 305.004974,161.138657 281.682068,161.154480 
	C280.075500,161.155563 278.469055,161.326462 276.260040,161.452866 
	C276.260040,171.937897 276.490356,182.065735 276.155579,192.174850 
	C276.005066,196.718765 277.576080,197.746475 281.859528,197.710693 
	C304.681030,197.520035 327.510834,197.950363 350.326782,197.547104 
	C384.110626,196.949966 407.534576,222.199112 411.003174,246.951416 
	C411.455505,250.179489 411.905243,253.407928 412.368652,256.725586 
	C424.400208,256.725586 436.144379,256.725586 447.866730,256.725586 
	C449.328583,235.824615 439.407135,206.832840 417.112244,186.396591 
M291.499878,276.318268 
	C303.989746,276.316162 316.480469,276.233215 328.968872,276.367371 
	C332.191254,276.402008 333.342651,275.373352 333.287445,272.084137 
	C333.119720,262.095032 333.090637,252.098480 333.299835,242.110947 
	C333.375153,238.514679 332.039795,237.623642 328.664368,237.629517 
	C280.869934,237.712646 233.075256,237.714767 185.280823,237.626724 
	C181.836121,237.620392 180.629166,238.647171 180.703552,242.165710 
	C180.904144,251.653763 181.039886,261.159729 180.656952,270.636597 
	C180.464417,275.401154 182.154068,276.424988 186.584488,276.404846 
	C221.222351,276.247467 255.861267,276.318146 291.499878,276.318268 
z"/>
<path fill="#FCFEFD" opacity="0" stroke="none" 
	d="
M160.126419,161.161758 
	C186.063782,161.156769 211.516891,161.156769 237.735245,161.156769 
	C237.735245,168.909378 237.804672,176.188614 237.709518,183.465714 
	C237.651245,187.921707 239.024567,194.288330 236.704330,196.329956 
	C233.982880,198.724609 227.952759,197.547333 223.354736,197.589188 
	C200.865860,197.793839 178.351501,197.280365 155.893066,198.185181 
	C131.147583,199.182144 108.572556,219.379898 103.350258,243.696518 
	C96.128838,277.321686 117.782471,309.774384 151.516037,315.622589 
	C155.913147,316.384918 160.482513,316.333344 164.973022,316.346924 
	C187.466904,316.414948 209.961838,316.472351 232.454514,316.295258 
	C236.587296,316.262726 237.935272,317.463684 237.824097,321.641144 
	C237.554596,331.768738 237.736511,341.908325 237.736511,352.565826 
	C235.496552,352.679565 233.743042,352.844849 231.989395,352.846130 
	C208.995453,352.862640 186.001389,352.901520 163.007568,352.845490 
	C116.358307,352.731812 78.762039,323.010040 67.864479,277.696655 
	C55.985607,228.302811 88.250549,175.940765 137.994507,164.253860 
	C145.062042,162.593384 152.419098,162.165237 160.126419,161.161758 
z"/>
<path fill="#FEFFFE" opacity="0" stroke="none" 
	d="
M409.001038,352.851166 
	C402.877106,352.851166 397.252808,352.851166 391.047058,352.851166 
	C391.047058,372.058044 391.047058,390.782013 391.047058,409.831909 
	C378.219666,409.831909 365.976257,409.831909 353.090942,409.831909 
	C353.090942,391.049774 353.090942,372.335083 353.090942,353.004089 
	C333.585938,353.004089 314.704987,353.004089 295.470123,353.004089 
	C295.470123,340.148438 295.470123,327.912170 295.470123,314.980591 
	C314.272430,314.980591 333.140350,314.980591 352.614563,314.980591 
	C352.614563,295.431000 352.614563,276.554840 352.614563,257.342041 
	C365.615692,257.342041 378.005859,257.342041 390.956818,257.342041 
	C390.956818,276.280853 390.956818,295.173126 390.956818,314.628662 
	C410.250183,314.628662 428.997040,314.628662 448.148560,314.628662 
	C448.148560,327.558868 448.148560,339.918915 448.148560,352.851166 
	C435.064484,352.851166 422.282593,352.851166 409.001038,352.851166 
z"/>
<path fill="#FCFEFD" opacity="0" stroke="none" 
	d="
M417.372192,186.636261 
	C439.407135,206.832840 449.328583,235.824615 447.866730,256.725586 
	C436.144379,256.725586 424.400208,256.725586 412.368652,256.725586 
	C411.905243,253.407928 411.455505,250.179489 411.003174,246.951416 
	C407.534576,222.199112 384.110626,196.949966 350.326782,197.547104 
	C327.510834,197.950363 304.681030,197.520035 281.859528,197.710693 
	C277.576080,197.746475 276.005066,196.718765 276.155579,192.174850 
	C276.490356,182.065735 276.260040,171.937897 276.260040,161.452866 
	C278.469055,161.326462 280.075500,161.155563 281.682068,161.154480 
	C305.004974,161.138657 328.328613,161.030365 351.650574,161.178421 
	C376.603607,161.336823 398.541626,169.554535 417.372192,186.636261 
z"/>
<path fill="#FEFFFE" opacity="0" stroke="none" 
	d="
M290.999878,276.318359 
	C255.861267,276.318146 221.222351,276.247467 186.584488,276.404846 
	C182.154068,276.424988 180.464417,275.401154 180.656952,270.636597 
	C181.039886,261.159729 180.904144,251.653763 180.703552,242.165710 
	C180.629166,238.647171 181.836121,237.620392 185.280823,237.626724 
	C233.075256,237.714767 280.869934,237.712646 328.664368,237.629517 
	C332.039795,237.623642 333.375153,238.514679 333.299835,242.110947 
	C333.090637,252.098480 333.119720,262.095032 333.287445,272.084137 
	C333.342651,275.373352 332.191254,276.402008 328.968872,276.367371 
	C316.480469,276.233215 303.989746,276.316162 290.999878,276.318359 
z"/>
</svg>